<svg xmlns="http://www.w3.org/2000/svg" data-name="Layer 1" viewBox="0 0 100 125" x="0px" y="0px">
    <defs>
        <style>
            .cls-1 {
                fill: #80201e;
            }
        </style>
    </defs>
    <title>export</title>
    <line fill="#80201e" class="cls-1" x1="32" y1="32" x2="68" y2="68" />
    <path fill="#80201e" d="M68,71a3,3,0,0,1-2.12-.88l-36-36a3,3,0,0,1,4.24-4.24l36,36A3,3,0,0,1,68,71Z" />
    <line fill="#80201e" class="cls-1" x1="32" y1="68" x2="68" y2="32" />
    <path fill="#80201e" d="M32,71a3,3,0,0,1-2.12-5.12l36-36a3,3,0,0,1,4.24,4.24l-36,36A3,3,0,0,1,32,71Z" />
</svg>